<?xml version="1.0" encoding="utf-8"?>
<!-- Generator: Adobe Illustrator 28.0.0, SVG Export Plug-In . SVG Version: 6.00 Build 0)  -->
<svg version="1.1" id="Слой_1" xmlns="http://www.w3.org/2000/svg" xmlns:xlink="http://www.w3.org/1999/xlink" x="0px" y="0px"
	 viewBox="0 0 64 64" style="enable-background:new 0 0 64 64;" xml:space="preserve">
<style type="text/css">
	.st0{fill:#2231AA;}
	.st1{fill:#FFFFFF;}
</style>
<rect class="st0" width="64" height="64"/>
<rect x="3.5" y="3.5" class="st1" width="57" height="57"/>
<rect x="6.5" y="6.5" class="st0" width="51" height="51"/>
<g>
	<path class="st1" d="M20,13.5c2.1-0.5,5.5-0.8,9-0.8c4.9,0,8.1,0.8,10.4,2.8c2,1.5,3.2,3.7,3.2,6.7c0,3.7-2.4,6.9-6.4,8.3v0.1
		c3.6,0.9,7.8,3.9,7.8,9.5c0,3.3-1.3,5.7-3.2,7.6c-2.6,2.4-6.9,3.5-13.1,3.5c-3.4,0-6-0.2-7.6-0.4V13.5z M24.9,29h4.4
		c5.2,0,8.2-2.7,8.2-6.4c0-4.5-3.4-6.2-8.3-6.2c-2.3,0-3.5,0.2-4.3,0.3V29z M24.9,47.2c1,0.2,2.4,0.2,4.1,0.2c5.1,0,9.7-1.9,9.7-7.4
		c0-5.2-4.4-7.3-9.8-7.3h-4.1V47.2z"/>
</g>
</svg>
